<?xml version="1.0" encoding="UTF-8" standalone="no"?>
<!DOCTYPE svg PUBLIC "-//W3C//DTD SVG 1.1//EN" "http://www.w3.org/Graphics/SVG/1.1/DTD/svg11.dtd">
<svg xmlns="http://www.w3.org/2000/svg" version="1.1" viewBox="0 0 1024 1024" width="1024.0pt" height="1024.0pt">
<path d="M 316.00 82.58 C 325.95 82.66 336.00 82.14 345.91 83.01 C 364.10 84.33 382.25 87.33 399.89 91.98 C 433.50 100.65 465.51 116.07 493.73 136.22 C 506.91 145.95 519.09 156.75 530.56 168.45 C 533.69 171.65 537.06 174.72 539.90 178.20 C 540.64 179.21 541.68 180.52 541.68 181.83 C 540.65 184.37 538.37 186.54 536.50 188.50 C 533.01 191.96 529.69 195.58 526.02 198.85 C 517.27 190.73 509.38 181.56 500.19 173.82 C 492.53 166.97 484.22 161.15 475.81 155.26 C 439.77 130.60 397.34 115.18 353.94 110.50 C 346.96 110.07 339.86 110.78 333.00 109.97 C 328.98 109.51 325.02 109.50 321.00 109.95 C 312.56 110.97 304.39 109.67 295.88 111.02 C 286.20 112.45 276.52 114.09 266.97 116.23 C 251.04 120.14 235.27 125.47 220.49 132.63 C 199.09 142.61 178.61 155.32 160.73 170.78 C 133.92 194.70 111.44 223.34 95.92 255.81 C 83.30 281.74 75.25 309.70 71.69 338.29 C 71.21 344.21 70.23 350.01 70.36 355.98 C 70.43 368.94 70.22 381.92 70.47 394.87 C 72.99 425.12 80.87 454.97 93.58 482.53 C 96.52 489.11 100.26 495.29 103.09 501.92 C 97.42 507.71 90.68 513.11 83.95 517.62 C 79.43 511.37 76.15 504.21 72.43 497.46 C 59.83 472.88 52.15 446.47 47.33 419.35 C 45.58 408.96 44.38 398.50 43.67 388.00 C 43.61 376.00 43.52 363.98 43.72 351.98 C 45.00 338.18 46.54 324.25 49.57 310.72 C 60.76 258.28 86.85 208.69 123.72 169.75 C 129.28 163.21 135.83 157.92 142.06 152.06 C 170.49 126.78 204.47 108.25 240.50 96.30 C 264.94 88.33 290.32 83.61 316.00 82.58 Z" fill="#a74a51" />
<path d="M 331.93 143.77 C 338.63 144.62 345.33 144.31 352.05 144.64 C 403.41 149.91 453.04 172.67 488.92 210.08 C 492.51 214.25 496.80 218.12 499.62 222.87 C 497.29 225.43 495.01 228.04 492.74 230.66 C 490.74 232.97 488.64 235.87 485.96 237.40 C 484.28 237.31 482.73 235.53 481.49 234.49 C 474.02 227.12 466.75 218.97 458.51 212.51 C 435.39 193.44 407.31 180.15 378.32 172.84 C 368.72 170.42 358.87 168.85 348.99 168.20 C 339.47 166.92 329.71 167.33 320.14 167.52 C 311.95 168.42 303.76 168.57 295.62 169.92 C 258.63 176.25 223.45 192.29 195.50 217.49 C 188.12 224.45 180.87 231.49 174.14 239.08 C 161.71 254.15 150.92 271.13 143.18 289.10 C 137.00 303.99 131.80 319.74 128.96 335.64 C 127.86 342.96 126.40 349.65 126.38 356.97 C 126.31 366.98 126.32 377.00 126.39 387.01 C 126.37 394.93 127.96 402.23 129.19 410.03 C 130.57 418.41 133.11 426.40 135.80 434.43 C 137.83 440.76 141.12 446.49 142.67 453.00 C 139.05 459.28 132.14 463.88 126.75 468.65 C 125.50 467.36 124.30 466.06 123.45 464.46 C 110.86 441.08 105.60 415.21 102.77 389.04 C 102.49 379.04 102.59 369.00 102.62 358.99 C 103.16 347.11 105.09 335.19 107.36 323.52 C 113.91 293.49 126.62 265.28 143.80 239.85 C 167.08 207.24 198.59 179.48 235.50 163.40 C 250.99 156.69 267.46 150.91 284.08 147.81 C 291.33 146.59 298.65 145.25 305.98 144.68 C 314.73 144.51 323.14 142.86 331.93 143.77 Z" fill="#a74a51" />
<path d="M 628.20 199.11 C 630.91 198.13 634.15 198.40 637.00 198.30 C 643.45 198.36 649.91 198.20 656.35 198.59 C 656.71 207.63 656.34 216.68 656.48 225.73 C 658.29 226.11 660.09 226.49 661.95 226.54 C 670.71 226.79 679.53 226.34 688.28 226.75 C 688.63 233.17 688.41 239.57 688.45 246.00 C 688.46 405.33 688.44 564.67 688.45 724.00 C 688.44 729.79 688.59 735.58 688.32 741.37 C 683.54 741.64 678.78 741.58 674.00 741.54 C 653.33 741.54 632.67 741.55 612.00 741.54 C 605.88 741.51 599.77 741.72 593.66 741.37 C 593.45 736.91 593.46 732.46 593.51 728.00 C 593.49 569.67 593.53 411.33 593.50 253.00 C 593.55 244.61 593.38 236.23 593.55 227.85 C 594.69 227.37 595.85 226.99 597.03 226.71 C 606.77 226.01 616.99 227.58 626.60 225.77 C 626.90 217.11 625.52 207.27 628.20 199.11 Z" fill="#4a5c77" />
<path d="M 355.95 225.53 C 362.38 225.49 368.82 225.46 375.24 225.76 C 375.71 234.69 375.35 243.64 375.51 252.59 C 383.38 252.86 391.09 252.08 398.78 253.15 C 402.54 253.51 406.31 253.54 410.07 253.99 C 410.64 258.99 410.40 263.98 410.40 269.00 C 410.39 421.67 410.40 574.33 410.40 727.00 C 410.43 731.78 410.48 736.55 410.25 741.33 C 404.16 741.75 398.10 741.50 392.00 741.54 C 368.00 741.57 344.00 741.50 320.00 741.58 C 317.91 741.54 315.82 741.45 313.73 741.35 C 313.46 735.56 313.63 729.79 313.60 724.00 C 313.60 574.67 313.60 425.33 313.60 276.00 C 313.64 268.97 313.50 261.95 313.66 254.93 C 317.38 253.12 321.01 253.62 325.00 253.56 C 331.85 253.57 338.69 253.34 345.54 253.34 C 346.18 244.97 344.14 235.13 347.37 227.38 C 350.15 226.24 352.92 225.49 355.95 225.53 Z" fill="#4a5c77" />
<path d="M 769.26 302.08 C 773.25 300.88 777.86 301.46 782.00 301.35 C 786.86 301.49 792.00 300.86 796.74 301.86 C 797.15 304.91 797.46 307.95 797.39 311.04 C 797.28 316.98 798.45 322.78 798.51 328.72 C 808.76 330.61 819.59 328.78 829.92 330.04 C 830.67 335.04 830.34 339.97 830.37 345.00 C 830.40 470.67 830.39 596.33 830.38 722.00 C 830.33 728.45 830.56 734.87 830.24 741.32 C 824.15 741.71 818.09 741.48 812.00 741.51 C 788.33 741.54 764.66 741.47 741.00 741.55 C 738.92 741.51 736.85 741.42 734.78 741.32 C 734.52 735.88 734.65 730.44 734.65 725.00 C 734.63 598.00 734.69 471.00 734.63 344.00 C 734.49 339.22 735.10 334.60 735.85 329.89 C 746.43 328.74 757.00 330.08 767.59 328.39 C 770.02 320.05 767.48 310.49 769.26 302.08 Z" fill="#a74a51" />
<path d="M 489.99 304.59 C 498.41 304.23 506.93 304.33 515.36 304.61 C 515.74 313.57 515.32 322.43 516.75 331.33 C 527.51 331.94 538.32 331.16 549.08 331.80 C 549.55 337.21 549.34 342.59 549.35 348.00 C 549.34 473.33 549.35 598.67 549.35 724.00 C 549.33 729.77 549.53 735.52 549.15 741.28 C 545.42 741.53 541.73 741.61 538.00 741.53 C 515.67 741.48 493.33 741.54 471.00 741.51 C 465.30 741.48 459.64 741.75 453.96 741.25 C 453.44 735.83 453.68 730.43 453.66 725.00 C 453.62 673.67 453.59 622.33 453.62 571.00 C 453.49 565.31 454.57 559.72 454.48 554.03 C 454.46 520.01 454.49 485.99 454.49 451.97 C 454.57 446.61 453.58 441.35 453.61 436.00 C 453.61 406.00 453.63 375.99 453.61 346.00 C 453.66 342.06 453.35 338.03 453.84 334.12 C 454.35 333.45 455.12 333.04 456.16 332.88 C 466.66 331.02 476.90 331.78 487.47 331.53 C 487.87 323.69 487.31 315.84 487.69 308.02 C 487.77 306.79 488.36 304.35 489.99 304.59 Z" fill="#a74a51" />
<path d="M 939.04 396.01 C 939.64 398.01 940.31 399.87 940.39 401.97 C 940.76 410.09 940.20 418.22 940.62 426.35 C 951.13 426.99 961.66 426.22 972.15 426.79 C 974.01 432.67 973.76 438.64 973.14 444.69 C 972.20 451.65 972.68 458.96 972.58 466.00 C 972.70 473.39 972.19 480.99 973.11 488.31 C 973.72 493.77 973.58 499.49 973.58 505.00 C 973.55 577.67 973.59 650.33 973.57 723.00 C 973.54 729.14 973.75 735.26 973.41 741.39 C 949.29 741.75 925.13 741.43 901.00 741.54 C 892.58 741.42 884.14 741.81 875.74 741.34 C 875.52 736.56 875.57 731.78 875.60 727.00 C 875.60 632.33 875.60 537.67 875.60 443.00 C 875.59 437.96 875.43 432.93 875.85 427.90 C 880.96 427.49 885.91 426.58 890.99 426.57 C 896.52 426.55 902.05 426.72 907.58 426.52 C 908.04 416.10 906.54 406.83 908.97 396.98 C 918.90 393.75 928.90 394.22 939.04 396.01 Z" fill="#4a5c77" />
<path d="M 235.76 463.22 C 237.15 472.13 235.88 481.41 236.40 490.42 C 246.75 490.72 257.26 490.01 267.56 491.02 C 267.47 496.38 268.22 501.66 268.34 507.00 C 268.33 580.00 268.32 653.00 268.33 726.00 C 268.33 731.10 268.61 736.12 267.80 741.18 C 262.86 741.78 257.96 741.50 253.00 741.51 C 232.33 741.52 211.67 741.52 191.00 741.51 C 185.24 741.50 179.49 741.68 173.74 741.33 C 173.37 733.23 173.68 725.11 173.58 717.00 C 173.61 648.00 173.55 579.00 173.59 510.00 C 173.62 503.59 173.37 497.21 173.77 490.80 C 182.83 490.34 191.93 490.81 201.00 490.45 C 202.89 490.32 205.16 490.19 206.38 488.51 C 207.21 481.42 206.18 474.12 206.77 467.00 C 206.99 465.93 207.24 463.64 208.56 463.44 C 217.72 460.54 226.44 461.92 235.76 463.22 Z" fill="#a74a51" />
<path d="M 515.24 517.74 C 523.34 520.32 528.39 527.07 530.87 534.93 C 525.48 536.41 520.12 537.78 514.58 538.58 C 512.89 535.95 511.04 532.25 507.95 531.09 C 503.86 529.51 498.54 530.09 495.45 533.45 C 491.89 537.08 491.37 542.14 491.30 546.99 C 491.31 551.28 491.53 556.45 493.75 560.24 C 496.63 565.20 503.86 566.07 508.64 563.67 C 512.37 561.91 513.69 556.76 515.25 553.26 C 520.72 554.60 526.09 556.29 531.39 558.17 C 529.78 567.17 523.73 575.09 514.83 577.79 C 507.50 579.82 499.48 579.59 492.11 577.87 C 482.56 575.68 475.50 566.92 473.34 557.65 C 471.65 550.02 471.79 541.63 474.19 534.17 C 476.76 526.29 482.85 520.21 490.77 517.74 C 498.12 515.41 507.90 515.37 515.24 517.74 Z" fill="#ffffff" />
<path d="M 177.35 517.31 C 183.18 517.05 189.05 517.22 194.89 517.25 C 197.99 527.68 198.38 538.95 201.72 549.29 C 205.40 538.80 207.33 527.68 211.15 517.23 C 217.00 517.17 222.84 517.12 228.69 517.31 C 230.89 523.97 232.47 530.81 234.48 537.54 C 235.79 541.86 236.28 545.95 238.23 549.93 C 240.43 539.10 242.39 528.22 244.54 517.37 C 250.41 517.07 256.28 517.15 262.16 517.29 C 261.40 524.10 259.46 530.58 258.11 537.32 C 254.95 550.83 252.37 564.50 248.91 577.92 C 242.74 578.29 236.52 578.42 230.36 577.82 C 227.28 566.81 224.21 555.79 221.19 544.76 C 220.85 543.40 220.29 542.21 219.54 541.03 C 216.46 552.13 213.37 563.22 210.38 574.35 C 209.81 575.68 209.81 578.03 207.87 577.99 C 202.16 578.27 196.17 578.55 190.50 577.65 C 186.87 560.69 183.06 543.77 179.24 526.85 C 178.56 523.71 177.67 520.52 177.35 517.31 Z" fill="#ffffff" />
<path d="M 336.51 517.40 C 339.31 517.09 342.19 517.21 345.00 517.20 C 358.90 517.32 372.81 517.10 386.72 517.29 C 386.90 521.57 386.89 525.79 386.74 530.07 C 376.36 530.75 365.91 530.04 355.50 530.40 C 355.37 533.51 355.36 536.61 355.48 539.73 C 365.21 540.18 374.97 539.42 384.68 540.09 C 384.80 544.09 384.80 548.05 384.67 552.06 C 374.99 552.79 365.22 552.03 355.51 552.41 C 355.36 556.25 355.36 560.05 355.47 563.89 C 366.18 564.73 377.01 563.90 387.75 564.28 C 387.94 568.85 387.93 573.37 387.79 577.94 C 381.85 578.35 375.94 578.10 370.00 578.14 C 358.81 577.97 347.56 578.52 336.40 577.87 C 336.47 557.75 336.24 537.49 336.51 517.40 Z" fill="#ffffff" />
<path d="M 630.37 517.39 C 637.13 516.97 644.00 517.27 650.78 517.27 C 653.56 523.05 655.40 529.24 657.78 535.20 C 663.04 549.50 668.66 563.67 673.77 578.02 C 667.23 578.23 660.66 578.33 654.12 577.95 C 653.06 574.69 651.90 571.45 650.80 568.20 C 643.90 568.06 637.00 568.12 630.10 568.16 C 628.79 571.33 627.73 574.58 626.76 577.88 C 620.41 578.38 614.00 578.27 607.64 577.94 C 609.20 572.31 611.53 566.99 613.53 561.51 C 618.38 548.39 623.43 535.34 628.18 522.18 C 628.79 520.57 629.44 518.85 630.37 517.39 Z" fill="#ffffff" />
<path d="M 756.14 517.35 C 761.94 517.01 767.80 517.15 773.61 517.36 C 777.94 523.10 781.71 529.26 785.86 535.13 C 789.27 539.87 792.13 545.10 796.05 549.34 C 796.68 538.69 796.02 527.98 796.36 517.31 C 802.21 517.13 808.05 517.14 813.90 517.28 C 814.60 525.48 814.04 533.77 814.21 542.00 C 814.06 553.97 814.52 565.98 813.99 577.93 C 808.08 578.27 802.21 578.42 796.31 577.84 C 791.07 570.64 786.26 563.13 781.19 555.82 C 778.79 552.38 776.77 548.81 773.86 545.76 C 773.30 556.44 773.84 567.17 773.63 577.87 C 767.74 578.35 761.84 578.31 755.95 577.93 C 755.47 562.98 755.89 547.97 755.75 533.00 C 755.87 527.83 755.33 522.47 756.14 517.35 Z" fill="#ffffff" />
<path d="M 640.29 534.05 C 643.08 540.66 644.71 547.91 646.79 554.80 C 642.53 554.94 638.31 554.94 634.05 554.76 C 635.82 547.82 637.98 540.83 640.29 534.05 Z" fill="#4a5c77" />
<path d="M 74.98 541.47 C 81.40 541.49 87.84 541.37 94.25 541.69 C 94.69 549.68 94.08 557.51 95.66 565.42 C 106.24 565.86 116.82 565.34 127.39 565.72 C 127.83 571.82 127.58 577.89 127.64 584.00 C 127.78 630.67 127.65 677.33 127.66 724.00 C 127.64 729.81 127.84 735.60 127.47 741.40 C 98.99 741.76 70.48 741.39 42.00 741.58 C 39.23 741.60 36.46 741.48 33.69 741.35 C 33.36 733.58 33.64 725.78 33.55 718.00 C 33.59 672.67 33.44 627.33 33.61 582.00 C 33.61 576.60 33.40 571.23 33.86 565.84 C 45.02 565.20 56.22 565.91 67.39 565.44 C 67.51 557.91 67.10 550.40 67.55 542.90 C 69.89 541.25 72.27 541.59 74.98 541.47 Z" fill="#4a5c77" />
<path d="M 7.59 768.69 C 14.73 768.40 21.86 768.62 29.00 768.57 C 121.00 768.57 213.00 768.54 305.00 768.61 C 533.67 768.65 762.33 768.54 991.00 768.57 C 997.41 768.64 1003.75 768.31 1010.14 768.81 C 1010.60 774.64 1010.51 780.48 1010.24 786.32 C 1003.82 786.74 997.43 786.47 991.00 786.52 C 669.33 786.54 347.67 786.51 26.00 786.55 C 19.84 786.52 13.70 786.70 7.54 786.41 C 7.19 780.50 7.14 774.59 7.59 768.69 Z" fill="#4a5c77" />
<path d="M 67.18 822.15 C 70.96 821.24 75.14 821.69 79.00 821.62 C 85.50 821.77 91.55 820.92 97.75 823.08 C 102.98 824.88 107.00 829.11 108.95 834.23 C 110.98 839.35 110.76 845.62 110.46 851.05 C 110.13 857.50 106.30 863.59 100.68 866.74 C 96.27 869.06 90.90 869.52 86.00 869.46 C 79.62 869.37 73.28 869.67 66.91 869.19 C 66.28 858.49 66.82 847.72 66.64 837.00 C 66.78 832.13 66.12 826.92 67.18 822.15 Z" fill="#a74a51" />
<path d="M 140.70 821.73 C 153.85 821.48 167.12 821.46 180.27 821.75 C 180.53 825.33 180.57 828.82 180.32 832.42 C 172.36 832.94 164.37 832.50 156.38 832.59 C 156.38 834.87 156.37 837.15 156.37 839.42 C 163.72 839.51 171.02 839.10 178.36 839.59 C 178.56 842.88 178.56 846.11 178.35 849.40 C 171.03 849.87 163.75 849.46 156.41 849.56 C 156.35 852.24 156.33 854.93 156.35 857.62 C 164.37 857.73 172.37 857.39 180.38 857.73 C 180.81 861.66 180.79 865.41 180.44 869.34 C 167.21 869.54 153.91 869.59 140.68 869.32 C 140.32 861.22 140.62 853.10 140.52 845.00 C 140.62 837.24 140.30 829.48 140.70 821.73 Z" fill="#4a5c77" />
<path d="M 229.95 821.37 C 234.71 821.20 240.38 821.00 244.79 823.03 C 250.04 825.57 253.84 830.47 255.16 836.14 C 251.28 837.37 246.52 839.17 242.41 838.62 C 241.09 837.25 240.08 835.64 238.70 834.37 C 234.62 831.05 227.93 832.96 226.04 837.79 C 225.14 840.33 225.40 843.35 225.32 846.02 C 225.42 848.74 225.13 852.17 226.47 854.62 C 228.69 858.87 235.19 859.90 238.69 856.69 C 240.49 854.68 241.71 852.05 242.99 849.69 C 247.46 850.74 251.82 851.59 255.90 853.84 C 254.53 858.83 252.09 863.81 247.65 866.74 C 241.23 870.79 233.07 871.44 225.86 869.37 C 221.67 868.24 217.83 866.31 215.10 862.84 C 208.57 854.78 207.82 842.41 211.97 833.13 C 215.05 825.99 222.28 821.60 229.95 821.37 Z" fill="#4a5c77" />
<path d="M 285.60 821.71 C 298.50 821.50 311.47 821.48 324.37 821.72 C 324.69 825.35 324.71 828.82 324.43 832.46 C 316.44 832.90 308.48 832.50 300.48 832.61 C 300.48 834.87 300.48 837.14 300.47 839.41 C 307.82 839.51 315.14 839.14 322.48 839.54 C 322.75 842.88 322.75 846.10 322.48 849.44 C 315.15 849.83 307.84 849.47 300.51 849.57 C 300.45 852.24 300.44 854.92 300.47 857.59 C 308.75 857.77 317.01 857.34 325.29 857.77 C 325.60 861.67 325.61 865.41 325.32 869.32 C 312.10 869.59 298.79 869.55 285.57 869.34 C 285.16 863.22 285.41 857.13 285.37 851.00 C 285.51 841.24 285.05 831.45 285.60 821.71 Z" fill="#4a5c77" />
<path d="M 355.73 821.75 C 360.45 821.47 365.12 821.37 369.84 821.81 C 375.62 830.03 381.10 838.48 386.71 846.81 C 386.50 838.47 386.36 830.09 386.71 821.75 C 391.57 821.45 396.38 821.45 401.25 821.76 C 401.61 829.50 401.32 837.25 401.40 845.00 C 401.31 853.10 401.61 861.20 401.26 869.29 C 396.49 869.60 391.82 869.63 387.05 869.30 C 381.11 861.51 376.16 852.98 370.41 845.04 C 370.35 853.12 370.67 861.22 370.29 869.30 C 365.41 869.61 360.60 869.61 355.71 869.30 C 355.36 861.21 355.66 853.10 355.56 845.00 C 355.66 837.25 355.35 829.49 355.73 821.75 Z" fill="#4a5c77" />
<path d="M 429.74 821.75 C 444.56 821.46 459.49 821.49 474.31 821.73 C 474.63 825.96 474.64 830.10 474.32 834.33 C 469.41 834.56 464.51 834.43 459.60 834.49 C 459.52 846.09 459.94 857.74 459.44 869.33 C 454.49 869.59 449.60 869.60 444.66 869.31 C 444.24 857.70 444.64 846.07 444.51 834.46 C 439.57 834.45 434.65 834.55 429.72 834.31 C 429.42 830.08 429.44 825.98 429.74 821.75 Z" fill="#4a5c77" />
<path d="M 503.81 821.79 C 510.55 821.35 517.25 821.68 524.00 821.57 C 528.89 821.59 533.32 821.17 538.04 822.77 C 542.39 824.16 546.26 828.14 546.60 832.83 C 546.89 836.13 546.84 840.01 544.86 842.81 C 542.99 845.81 539.74 847.20 536.58 848.48 C 539.48 850.27 542.02 852.43 543.59 855.51 C 545.99 860.07 548.65 864.47 550.43 869.25 C 544.95 869.64 539.47 869.58 533.98 869.35 C 529.92 864.20 528.15 857.83 524.32 852.62 C 523.08 850.95 521.34 850.69 519.49 850.05 C 519.30 856.47 519.68 862.88 519.30 869.30 C 514.09 869.61 508.96 869.61 503.75 869.28 C 503.40 861.20 503.69 853.09 503.60 845.00 C 503.71 837.26 503.33 829.50 503.81 821.79 Z" fill="#4a5c77" />
<path d="M 591.08 821.82 C 596.31 821.27 601.67 821.48 606.91 821.82 C 611.16 832.52 615.12 843.34 619.10 854.13 C 620.90 859.22 623.22 864.01 624.45 869.29 C 619.27 869.60 614.13 869.63 608.95 869.28 C 608.19 866.69 607.11 864.24 606.27 861.68 C 601.10 861.51 595.97 861.50 590.81 861.68 C 590.15 864.34 589.07 866.82 588.12 869.38 C 583.19 869.57 578.31 869.60 573.38 869.30 C 573.94 864.73 575.92 860.99 577.46 856.72 C 581.08 846.99 584.84 837.32 588.35 827.55 C 589.09 825.61 589.88 823.54 591.08 821.82 Z" fill="#4a5c77" />
<path d="M 651.69 821.75 C 656.62 821.45 661.49 821.46 666.42 821.72 C 667.01 833.30 666.53 844.96 666.62 856.56 C 674.18 856.81 681.72 856.31 689.28 856.79 C 689.64 861.02 689.63 865.09 689.33 869.32 C 676.81 869.58 664.19 869.58 651.67 869.32 C 651.30 861.22 651.61 853.11 651.51 845.00 C 651.61 837.25 651.29 829.48 651.69 821.75 Z" fill="#4a5c77" />
<path d="M 718.81 821.80 C 723.99 821.42 729.10 821.44 734.28 821.75 C 734.68 829.49 734.36 837.25 734.46 845.00 C 734.36 853.10 734.66 861.21 734.31 869.30 C 729.09 869.61 723.96 869.61 718.75 869.28 C 718.40 861.20 718.69 853.09 718.60 845.00 C 718.71 837.27 718.33 829.51 718.81 821.80 Z" fill="#4a5c77" />
<path d="M 765.91 821.84 C 771.61 821.36 777.29 821.61 783.00 821.59 C 791.11 821.67 799.24 821.39 807.35 821.72 C 807.51 825.03 807.98 828.67 807.28 831.93 C 805.45 834.98 802.44 837.42 799.99 839.98 C 793.95 846.15 787.80 852.02 782.25 858.63 C 790.95 858.52 799.66 858.32 808.35 858.66 C 808.63 862.26 808.63 865.72 808.35 869.33 C 793.48 869.57 778.53 869.57 763.66 869.32 C 763.54 866.31 763.15 863.06 763.68 860.08 C 764.51 857.82 766.50 855.91 768.11 854.16 C 775.19 846.85 782.26 839.49 789.59 832.45 C 781.66 832.66 773.66 832.91 765.73 832.38 C 765.48 828.82 765.47 825.38 765.91 821.84 Z" fill="#4a5c77" />
<path d="M 837.67 821.73 C 850.81 821.51 864.07 821.41 877.20 821.78 C 877.49 825.36 877.52 828.81 877.28 832.40 C 869.07 832.98 860.82 832.46 852.58 832.62 C 852.60 834.88 852.60 837.13 852.57 839.39 C 860.21 839.56 867.79 839.06 875.40 839.61 C 875.56 843.05 875.43 846.14 874.39 849.45 C 867.12 849.83 859.88 849.45 852.61 849.59 C 852.58 852.25 852.57 854.90 852.58 857.56 C 860.84 857.80 869.09 857.35 877.34 857.74 C 877.70 861.67 877.70 865.41 877.38 869.33 C 864.17 869.56 850.87 869.58 837.65 869.32 C 837.27 861.23 837.59 853.11 837.49 845.00 C 837.59 837.24 837.25 829.47 837.67 821.73 Z" fill="#4a5c77" />
<path d="M 908.61 821.71 C 915.41 821.43 922.21 821.64 929.01 821.54 C 933.13 821.45 937.18 822.07 940.90 823.88 C 946.73 826.68 950.77 832.56 951.48 838.97 C 951.87 842.97 951.85 847.04 951.65 851.05 C 951.44 857.42 947.62 864.16 941.73 866.88 C 937.73 868.77 933.43 869.50 929.03 869.48 C 922.21 869.46 915.39 869.60 908.58 869.34 C 908.18 863.22 908.42 857.12 908.38 851.00 C 908.52 841.24 908.08 831.45 908.61 821.71 Z" fill="#4a5c77" />
<path d="M 519.51 832.48 C 522.78 832.25 526.24 832.10 529.46 832.73 C 532.52 833.80 532.17 839.08 529.22 840.04 C 526.17 840.96 522.60 840.53 519.44 840.59 C 519.44 837.90 519.23 835.16 519.51 832.48 Z" fill="#ffffff" />
<path d="M 82.66 833.64 C 87.44 832.55 93.39 833.51 94.82 839.02 C 95.91 843.92 96.25 850.32 93.82 854.88 C 91.93 858.68 85.82 857.45 82.36 857.71 C 82.34 850.42 82.36 843.14 82.30 835.85 C 82.26 835.05 82.38 834.31 82.66 833.64 Z" fill="#ffffff" />
<path d="M 923.58 833.48 C 927.08 833.30 931.63 832.95 934.25 835.73 C 936.98 838.58 936.63 843.39 936.67 847.04 C 936.61 850.29 936.41 854.35 933.53 856.47 C 930.82 858.18 926.59 857.51 923.49 857.63 C 923.59 849.59 923.37 841.52 923.58 833.48 Z" fill="#ffffff" />
<path d="M 598.42 836.10 C 600.28 840.78 601.75 845.64 602.85 850.56 C 599.97 850.62 597.09 850.64 594.21 850.57 C 595.64 845.75 597.05 840.93 598.42 836.10 Z" fill="#ffffff" />
<path d="M 82.28 912.01 C 91.14 910.50 101.53 910.91 108.06 917.95 C 115.64 925.91 116.01 939.66 111.25 949.15 C 107.48 956.48 99.92 959.71 92.05 960.41 C 86.37 960.75 80.21 959.67 75.27 956.77 C 69.60 953.14 65.84 946.77 65.40 940.05 C 65.03 933.50 64.93 927.35 68.48 921.57 C 71.42 916.40 76.58 913.30 82.28 912.01 Z" fill="#a74a51" />
<path d="M 149.81 911.82 C 155.88 911.38 161.93 911.66 168.00 911.59 C 173.82 911.61 179.08 911.15 184.70 913.11 C 188.79 914.53 192.31 918.54 192.59 922.94 C 192.94 926.92 192.67 930.74 189.99 933.91 C 188.04 936.44 185.44 937.03 182.71 938.31 C 184.37 940.13 186.65 940.84 187.96 943.11 C 191.27 948.13 194.07 953.68 196.24 959.29 C 190.87 959.51 185.39 959.79 180.03 959.29 C 175.64 954.42 174.07 947.20 169.80 942.13 C 168.81 940.97 166.88 940.60 165.49 940.07 C 165.28 946.49 165.67 952.89 165.29 959.31 C 160.08 959.62 154.96 959.63 149.74 959.30 C 149.44 953.20 149.64 947.10 149.60 941.00 C 149.74 931.28 149.31 921.53 149.81 911.82 Z" fill="#4a5c77" />
<path d="M 249.97 911.35 C 256.36 911.37 262.83 910.67 268.29 914.60 C 271.78 916.97 273.41 920.43 274.89 924.23 C 271.76 926.26 267.40 926.61 263.78 927.27 C 259.97 928.26 258.65 923.78 255.53 922.66 C 252.02 921.99 248.44 922.12 245.74 924.75 C 242.17 928.15 242.24 933.41 242.42 937.97 C 242.72 942.34 244.04 946.69 248.48 948.43 C 253.08 950.76 257.35 948.46 261.57 946.51 C 261.58 945.19 261.64 943.88 261.75 942.56 C 258.68 942.57 255.61 942.40 252.54 942.39 C 252.22 938.77 252.24 935.34 252.61 931.72 C 260.17 931.51 267.76 931.48 275.31 931.75 C 275.69 938.55 275.52 945.33 275.48 952.13 C 266.93 959.74 253.07 962.55 242.21 959.04 C 236.13 957.27 231.40 952.58 229.00 946.79 C 226.96 941.98 227.05 936.07 227.43 930.94 C 228.18 924.49 231.86 917.68 237.77 914.58 C 241.52 912.35 245.62 911.36 249.97 911.35 Z" fill="#4a5c77" />
<path d="M 325.11 911.84 C 330.32 911.31 335.65 911.44 340.86 911.90 C 344.86 921.56 348.21 931.50 352.00 941.25 C 354.08 947.31 356.88 953.10 358.45 959.29 C 353.26 959.62 348.12 959.64 342.94 959.29 C 342.17 956.72 341.08 954.26 340.26 951.70 C 335.08 951.56 329.93 951.55 324.75 951.70 C 324.06 954.34 322.97 956.80 322.12 959.39 C 317.07 959.57 312.06 959.63 307.01 959.31 C 310.63 947.95 315.30 936.89 319.43 925.70 C 321.34 921.17 322.45 915.98 325.11 911.84 Z" fill="#4a5c77" />
<path d="M 390.80 911.83 C 395.30 911.66 400.34 911.00 404.73 912.07 C 406.92 913.90 408.42 916.70 410.05 919.02 C 413.93 924.68 417.56 930.53 421.64 936.04 C 421.69 927.96 421.36 919.86 421.77 911.80 C 426.62 911.46 431.40 911.46 436.25 911.77 C 436.61 919.50 436.32 927.26 436.41 935.00 C 436.32 943.10 436.60 951.21 436.27 959.31 C 431.53 959.60 426.86 959.69 422.12 959.26 C 416.34 951.05 410.55 942.78 405.30 934.22 C 405.57 942.56 405.65 950.97 405.34 959.31 C 400.45 959.62 395.63 959.63 390.73 959.29 C 390.42 953.19 390.63 947.10 390.59 941.00 C 390.72 931.28 390.30 921.54 390.80 911.83 Z" fill="#4a5c77" />
<path d="M 526.67 911.74 C 534.77 911.40 542.89 911.69 551.00 911.60 C 556.73 911.63 562.43 911.39 568.15 911.84 C 568.26 914.88 569.08 918.86 567.83 921.69 C 565.37 925.40 561.53 928.21 558.63 931.61 C 553.45 937.57 547.92 943.16 542.26 948.66 C 551.25 948.58 560.27 948.34 569.25 948.72 C 569.50 952.29 569.50 955.74 569.25 959.30 C 562.50 959.68 555.76 959.42 549.00 959.48 C 540.58 959.38 532.15 959.72 523.74 959.30 C 523.63 956.30 523.24 953.05 523.82 950.09 C 525.63 946.55 529.30 943.88 531.97 940.98 C 537.89 934.81 543.34 928.27 549.66 922.49 C 541.98 922.71 534.28 922.89 526.61 922.47 C 526.35 918.84 526.37 915.36 526.67 911.74 Z" fill="#4a5c77" />
<path d="M 617.99 911.71 C 622.57 911.45 627.32 911.34 631.88 911.85 C 632.96 912.58 633.45 914.12 633.97 915.27 C 638.62 928.18 643.51 941.02 648.39 953.85 C 649.01 955.65 649.54 957.47 650.05 959.31 C 646.36 959.48 642.67 959.62 638.98 959.54 C 637.55 959.38 635.48 959.74 634.34 958.77 C 633.34 956.52 632.71 954.20 632.07 951.83 C 626.90 951.46 621.74 951.59 616.56 951.68 C 615.70 954.19 614.63 956.61 613.90 959.17 C 608.81 959.77 603.74 959.57 598.65 959.29 C 599.78 954.86 601.56 950.69 603.20 946.44 C 606.99 936.23 610.88 926.08 614.60 915.85 C 615.32 914.41 615.97 911.59 617.99 911.71 Z" fill="#4a5c77" />
<path d="M 679.17 912.12 C 682.30 911.32 685.79 911.61 689.00 911.57 C 700.46 911.74 711.93 911.39 723.38 911.73 C 723.80 915.98 723.78 920.10 723.42 924.36 C 718.75 924.53 714.08 924.48 709.41 924.45 C 709.25 936.06 709.64 947.69 709.26 959.30 C 704.05 959.62 698.92 959.62 693.71 959.31 C 693.32 947.70 693.71 936.06 693.56 924.45 C 688.64 924.47 683.74 924.58 678.83 924.28 C 678.62 920.38 678.08 915.91 679.17 912.12 Z" fill="#4a5c77" />
<path d="M 827.27 911.98 C 831.42 911.10 835.82 911.18 840.03 911.55 C 847.47 912.32 854.30 916.92 857.32 923.83 C 859.64 928.99 859.82 934.41 859.32 939.96 C 858.50 946.12 856.05 952.20 850.79 955.86 C 842.68 961.52 831.28 961.96 822.43 957.81 C 815.91 954.85 811.41 948.05 810.54 941.03 C 810.06 934.48 809.94 928.33 813.23 922.43 C 816.06 916.92 821.35 913.43 827.27 911.98 Z" fill="#4a5c77" />
<path d="M 894.82 911.84 C 899.55 911.46 904.15 911.39 908.87 911.82 C 914.66 919.52 919.50 928.00 925.48 935.54 C 925.85 927.62 925.22 919.74 925.78 911.83 C 930.64 911.44 935.43 911.46 940.30 911.76 C 940.66 917.85 940.45 923.91 940.47 930.00 C 940.38 939.77 940.70 949.55 940.33 959.31 C 935.57 959.59 930.86 959.70 926.11 959.25 C 920.19 951.43 915.20 942.95 909.43 935.03 C 909.38 943.12 909.69 951.23 909.33 959.31 C 904.44 959.62 899.63 959.63 894.74 959.29 C 894.39 950.87 894.69 942.43 894.60 934.00 C 894.71 926.61 894.33 919.21 894.82 911.84 Z" fill="#4a5c77" />
<path d="M 474.53 912.47 C 479.52 912.08 484.40 912.06 489.39 912.48 C 489.56 928.07 489.64 943.73 489.35 959.32 C 484.41 959.61 479.52 959.61 474.58 959.33 C 474.15 951.90 474.49 944.45 474.39 937.00 C 474.48 928.82 474.20 920.64 474.53 912.47 Z" fill="#4a5c77" />
<path d="M 758.62 912.50 C 763.61 912.05 768.51 912.09 773.50 912.46 C 773.86 920.63 773.56 928.82 773.65 937.00 C 773.55 944.45 773.91 951.91 773.45 959.34 C 768.50 959.60 763.61 959.62 758.66 959.32 C 758.37 943.74 758.44 928.08 758.62 912.50 Z" fill="#4a5c77" />
<path d="M 165.50 922.50 C 168.77 922.27 172.23 922.11 175.45 922.77 C 178.51 923.85 178.13 929.05 175.23 930.07 C 172.17 930.97 168.60 930.54 165.42 930.61 C 165.43 927.92 165.22 925.17 165.50 922.50 Z" fill="#ffffff" />
<path d="M 85.53 923.70 C 87.90 923.06 91.08 923.12 93.46 923.71 C 96.55 925.27 98.65 928.49 98.61 931.99 C 98.63 935.92 99.21 940.86 97.35 944.43 C 94.65 949.58 86.85 949.95 82.99 946.02 C 79.94 942.23 80.25 937.61 80.38 933.01 C 80.51 929.27 82.07 925.48 85.53 923.70 Z" fill="#ffffff" />
<path d="M 831.44 923.64 C 834.65 923.15 839.11 922.80 841.42 925.57 C 844.18 928.56 843.53 932.26 843.69 936.01 C 843.53 939.40 844.07 942.94 841.60 945.62 C 837.88 950.40 828.77 949.29 826.74 943.48 C 825.28 939.72 825.15 935.40 825.76 931.45 C 826.46 928.15 827.92 924.66 831.44 923.64 Z" fill="#ffffff" />
<path d="M 332.36 926.15 C 334.36 930.73 335.61 935.75 336.80 940.60 C 333.94 940.64 331.07 940.64 328.21 940.58 C 329.60 935.77 331.07 930.99 332.36 926.15 Z" fill="#ffffff" />
<path d="M 624.29 926.11 C 625.72 930.96 627.16 935.80 628.64 940.63 C 625.81 940.66 622.97 940.62 620.13 940.56 C 621.04 935.60 622.62 930.86 624.29 926.11 Z" fill="#ffffff" />
</svg>